<svg xmlns="http://www.w3.org/2000/svg" viewBox="0 0 275.4 35.5"><defs><style>.a{fill:#a78bfa;}</style></defs><path class="a" d="M0,.5V12.3H25V35H40.6V12.3h25V.5Z"/><path class="a" d="M136.8,11a17,17,0,0,0-3.7-5.7,19.6,19.6,0,0,0-5.5-3.9A17.1,17.1,0,0,0,120.9,0H84.8a17.1,17.1,0,0,0-6.7,1.4,19.6,19.6,0,0,0-5.5,3.9A18.7,18.7,0,0,0,68.9,11a17.2,17.2,0,0,0-1.3,6.8,17,17,0,0,0,1.3,6.7,18.7,18.7,0,0,0,3.7,5.7,16.3,16.3,0,0,0,5.5,3.9,15.5,15.5,0,0,0,6.7,1.4h36.1a15.5,15.5,0,0,0,6.7-1.4,16.3,16.3,0,0,0,5.5-3.9,17,17,0,0,0,3.7-5.7,17,17,0,0,0,0-13.5ZM121.2,21.3a5.2,5.2,0,0,1-3.5,1.4H88.1a5.2,5.2,0,0,1-3.6-1.4,5,5,0,0,1-1.4-3.5,4.8,4.8,0,0,1,1.4-3.5,4.9,4.9,0,0,1,3.6-1.5h29.6a5,5,0,0,1,4.9,5A5,5,0,0,1,121.2,21.3Z"/><path class="a" d="M206.8.5H184.2L156.7,19.4V.5H141.1V35h15.6l13.7-9.4L184.2,35h22.6L181.7,17.8Z"/><polygon class="a" points="275.4 0.5 275.4 35 259.8 35 225.3 15.3 225.3 35 209.7 35 209.7 0.5 225.3 0.5 259.8 20.2 259.8 0.5 275.4 0.5"/></svg>