<svg xmlns="http://www.w3.org/2000/svg" viewBox="0 0 343.5 35.5"><defs><style>.a{fill:#a78bfa;}</style></defs><path class="a" d="M25,12.3H0V.5H65.6V12.3h-25V35H25Z"/><path class="a" d="M120.9,0a17.1,17.1,0,0,1,6.7,1.4,19.6,19.6,0,0,1,5.5,3.9,17,17,0,0,1,3.7,5.7,17.2,17.2,0,0,1,1.4,6.8,18,18,0,0,1-1.4,6.8,17.6,17.6,0,0,1-3.7,5.6,16.3,16.3,0,0,1-5.5,3.9,15.5,15.5,0,0,1-6.7,1.4H84.8a15.5,15.5,0,0,1-6.7-1.4,16.3,16.3,0,0,1-5.5-3.9,19.5,19.5,0,0,1-3.7-5.6,17.9,17.9,0,0,1-1.3-6.8A17.2,17.2,0,0,1,68.9,11a18.7,18.7,0,0,1,3.7-5.7,19.6,19.6,0,0,1,5.5-3.9A17.1,17.1,0,0,1,84.8,0Zm-3.2,12.8H88.1a4.9,4.9,0,0,0-3.6,1.5,4.8,4.8,0,0,0-1.4,3.5,5,5,0,0,0,1.4,3.5,5.2,5.2,0,0,0,3.6,1.4h29.6a4.8,4.8,0,0,0,4.9-4.9,4.8,4.8,0,0,0-1.4-3.5A4.7,4.7,0,0,0,117.7,12.8Z"/><path class="a" d="M141.1.5h15.6V19.4L184.2.5h22.6L181.7,17.8,206.8,35H184.2l-13.8-9.4L156.7,35H141.1Z"/><path class="a" d="M209.7.5h64.2V9.4H225.3v3.9h48.6v8.9H225.3v4h48.6V35H209.7Z"/><path class="a" d="M277.8.5h15.6l34.5,19.7V.5h15.6V35H327.9L293.4,15.3V35H277.8Z"/></svg>